<svg width="327" height="328" viewBox="0 0 327 328" fill="none" xmlns="http://www.w3.org/2000/svg">
<path d="M260.071 298.171L212.479 303.873L206.203 251.661C218.149 227.833 214.804 198.589 197.379 178.106L195.213 160.012L247.743 201.297C248.539 204.069 249.113 206.936 249.463 209.866L260.071 298.171Z" fill="#DDF79F"/>
<path d="M203.367 227.992C202.857 232.611 201.806 237.166 200.181 241.563C199.13 244.398 197.888 247.137 196.359 249.781C194.957 252.298 193.332 254.751 191.517 257.076L136.565 327.032L98.8799 297.406L131.373 256.057C156.635 247.679 174.983 224.615 177.15 197.793L188.395 183.489L188.873 182.884C190.72 184.923 192.409 187.089 193.906 189.319C196.55 193.205 198.652 197.378 200.213 201.711C203.271 210.121 204.355 219.136 203.367 227.992Z" fill="#DDF79F"/>
<path d="M167.753 195.149C167.626 197.888 167.307 200.596 166.766 203.24C165.905 207.891 164.472 212.255 162.497 216.428C158.738 224.583 153.099 231.751 146.091 237.326C142.491 240.225 138.509 242.709 134.241 244.653C131.501 245.927 128.634 247.01 125.672 247.806C122.932 248.571 120.065 249.144 117.166 249.495L28.8617 260.103L23.1277 212.478L75.3075 206.235C84.7687 210.981 95.09 213.307 105.379 213.307C120.989 213.307 136.566 207.923 148.926 197.41L166.989 195.244L167.753 195.149Z" fill="#DDF79F"/>
<path d="M144.116 188.905C142.077 190.753 139.943 192.441 137.745 193.938C133.858 196.551 129.717 198.653 125.385 200.214C116.911 203.336 107.768 204.419 98.8168 203.4C94.2614 202.89 89.7697 201.839 85.4373 200.214C82.6022 199.195 79.8626 197.92 77.1867 196.391C74.7019 194.99 72.2809 193.365 69.9554 191.549L0 136.598L29.5941 98.9125L70.9748 131.437C79.3847 156.667 102.385 174.952 129.144 177.15L143.511 188.427L144.116 188.905Z" fill="#DDF79F"/>
<path d="M131.851 167.753C129.08 167.625 126.34 167.307 123.664 166.733C119.045 165.873 114.649 164.408 110.476 162.465C102.417 158.674 95.3446 153.099 89.7698 146.186C86.8709 142.587 84.3862 138.573 82.4111 134.304C81.1369 131.564 80.0857 128.729 79.2574 125.767C78.461 122.995 77.8876 120.096 77.5372 117.166L66.9292 28.8613L114.522 23.1591L120.797 75.3708C108.883 99.1989 112.196 128.443 129.621 148.926L131.788 167.052L131.883 167.753H131.851Z" fill="#DDF79F"/>
<path d="M228.088 29.6259L195.563 71.0066C170.333 79.3847 152.016 102.416 149.85 129.175L138.573 143.542L138.095 144.148C136.247 142.109 134.559 139.975 133.062 137.745C130.449 133.826 128.315 129.653 126.754 125.321C123.696 116.911 122.613 107.896 123.6 99.0398C124.11 94.4207 125.161 89.8334 126.786 85.4373C127.837 82.5703 129.111 79.8626 130.609 77.2185C132.01 74.7019 133.635 72.2809 135.451 69.9554L190.402 0L228.088 29.6259Z" fill="#DDF79F"/>
<path d="M303.841 114.522L251.629 120.797C227.801 108.851 198.557 112.196 178.074 129.621L159.98 131.788L159.247 131.883C159.375 129.112 159.725 126.372 160.235 123.728C161.127 119.077 162.624 114.617 164.599 110.412C168.326 102.385 173.901 95.3127 180.814 89.7698C184.445 86.8391 188.427 84.3543 192.728 82.3793C195.467 81.105 198.334 80.0538 201.297 79.2256C204.068 78.461 206.904 77.8876 209.834 77.5372L298.139 66.9292L303.841 114.522Z" fill="#DDF79F"/>
<path d="M327 190.434L297.374 228.12L255.993 195.595L248.507 189.702H248.475L237.23 180.846L216.524 164.567L205.343 155.807L197.825 149.882L183.458 138.605L182.852 138.127C184.891 136.279 187.057 134.591 189.287 133.094C193.205 130.45 197.41 128.347 201.743 126.786C210.121 123.728 219.136 122.645 227.96 123.633C232.579 124.142 237.135 125.194 241.531 126.818C244.366 127.869 247.106 129.112 249.75 130.641C252.266 132.043 254.719 133.667 257.045 135.483L327 190.434Z" fill="#DDF79F"/>
</svg>